<svg xmlns="http://www.w3.org/2000/svg" viewBox="0 0 24 24" width="24" height="24" transform="rotate(180)"><path d="M4 17h16" stroke="#3a2a1a" stroke-width="1.5" stroke-linecap="round" fill="none"/><path d="M4 17c0-2 .5-3.5 1.5-5C7 10 8.5 9 10 8.5c.7-.2 1.3-.5 2-.5s1.3.3 2 .5c1.5.5 3 1.5 4.5 3.5 1 1.5 1.5 3 1.5 5" fill="none" stroke="#3a2a1a" stroke-width="1.8" stroke-linecap="round" stroke-linejoin="round"/><path d="M5.5 14.5c2-.6 4.2-1 6.5-1s4.5.4 6.5 1" fill="none" stroke="#3a2a1a" stroke-width="1.1" stroke-linecap="round"/><path d="M5 16c2-.4 4.5-.6 7-.6s5 .2 7 .6" fill="none" stroke="#3a2a1a" stroke-width="0.9" stroke-linecap="round" opacity=".6"/><ellipse cx="9.5" cy="12" rx="1.2" ry="1.5" fill="#d4a574" opacity=".7"/><ellipse cx="12" cy="11.5" rx="1" ry="1.3" fill="#d4a574" opacity=".6"/><ellipse cx="14.5" cy="12" rx="1.2" ry="1.5" fill="#d4a574" opacity=".7"/></svg>
